<svg width="245" height="60" viewBox="0 0 245 60" fill="none" xmlns="http://www.w3.org/2000/svg">
<path d="M19.4106 0.115295L19.142 21.294L38.48 40.7194V19.1493L19.4106 0.115295Z" fill="#8BB9FF"/>
<g opacity="0.58">
<path opacity="0.58" d="M19.142 38.4862L19.4106 59.9249L19.4079 59.9303L19.4025 59.933L19.3354 60L0 40.7006L0.0725178 40.6309V40.6282L10.6709 30.0496L19.2199 21.5164L27.6669 29.9477L19.1259 38.4728L19.142 38.4862Z" fill="#D0BCD5"/>
</g>
<g opacity="0.58">
<path opacity="0.58" d="M38.2669 40.5097L38.144 40.6296L38.4371 40.9286L38.5599 40.8086L38.2669 40.5097Z" fill="#D0BCD5"/>
</g>
<path d="M38.3619 19.2699L38.1766 19.4576L27.7125 29.9022L27.6669 29.9477L19.1259 38.4728L19.0775 38.5211L0.0725178 19.5514L0 19.479L0.0671461 19.412L19.2844 0.227875L19.4079 0.351194L38.3243 19.2324L38.3619 19.2699Z" fill="#F8FAFF"/>
<g opacity="0.58">
<path opacity="0.58" d="M57.2811 38.3709L57.5496 59.8097L57.547 59.815L57.5416 59.8177L57.4744 59.8847L38.139 40.5853L38.2116 40.5156V40.5129L57.359 21.4012L65.8059 29.8324L57.2649 38.3575L57.2811 38.3709Z" fill="#D0BCD5"/>
</g>
<g opacity="0.58">
<path opacity="0.58" d="M76.4048 40.3954L76.282 40.5154L76.5749 40.8142L76.6978 40.6943L76.4048 40.3954Z" fill="#D0BCD5"/>
</g>
<path d="M38.4345 40.9365L19.4107 59.9249L19.1421 38.4862L19.126 38.4728L27.667 29.9477L38.2599 40.521L38.1391 40.6416L38.4345 40.9365Z" fill="#2966C9"/>
<path d="M19.4106 59.925V59.933L0.0725098 40.6309V40.6282L10.6306 30.0898L0.0725098 19.5514V19.5005L10.6708 30.0496L19.1259 38.4728L19.142 38.4862L19.4106 59.925Z" fill="#8BB9FF"/>
<path d="M57.5496 0L57.281 21.1787L76.6191 40.6041V19.034L57.5496 0Z" fill="#8BB9FF"/>
<g opacity="0.5">
<path opacity="0.5" d="M76.5734 40.8212L57.5496 59.8097L57.281 38.371L57.2649 38.3575L65.8059 29.8325L76.3988 40.4057L76.278 40.5264L76.5734 40.8212Z" fill="#00163A"/>
</g>
<path d="M76.5009 19.1547L76.3156 19.3423L65.8516 29.7869L65.8059 29.8325L57.2649 38.3576L57.2166 38.4058L38.2116 19.4361L38.139 19.3638L38.2062 19.2967L57.4234 0.11261L57.5469 0.235929L76.4633 19.1171L76.5009 19.1547Z" fill="#F8FAFF"/>
<path d="M57.5495 59.8097V59.8177L38.2114 40.5156V40.5129L48.7695 29.9745L38.2114 19.4361V19.3852L48.8098 29.9343L57.2648 38.3575L57.2809 38.3709L57.5495 59.8097Z" fill="#8BB9FF"/>
<g clip-path="url(#clip0_52_505)">
<path d="M116.944 43.6226H112.856L104.31 30.8758H107.876C109.314 30.8758 110.503 30.4007 111.444 29.4505C112.385 28.5268 112.856 27.352 112.856 25.9261C112.856 24.476 112.385 23.2885 111.444 22.3636C110.502 21.4134 109.313 20.9383 107.876 20.9383H101.71V43.6226H97.9934V17.3759H107.876C110.501 17.3759 112.619 18.1633 114.232 19.7382C115.791 21.2832 116.57 23.2829 116.571 25.7374C116.571 27.7371 116.014 29.4621 114.9 30.9123C113.786 32.3624 112.262 33.3121 110.33 33.7613L116.944 43.6226Z" fill="#F8FAFF"/>
<path d="M162.416 40.4772V43.6706L156.539 43.6275H156.147V41.189C154.638 43.0652 152.594 44.0033 150.016 44.0033C147.639 44.0033 145.708 43.2026 144.222 41.6013C142.76 40.0264 142.029 38.0145 142.029 35.5656V24.8782H145.744V35.1799C145.744 36.8055 146.215 38.0807 147.157 39.0055C148.074 39.9558 149.338 40.4309 150.947 40.4309C152.557 40.4309 153.82 39.9558 154.736 39.0055C155.678 38.0807 156.148 36.8055 156.147 35.1799V24.8682H159.862V40.4772H162.416Z" fill="#F8FAFF"/>
<path d="M168.412 17.3759V27.3498C170.195 25.4494 172.425 24.4997 175.101 24.5008C177.749 24.5008 179.953 25.4256 181.713 27.2753C183.495 29.1514 184.387 31.4762 184.388 34.2496C184.389 37.0229 183.498 39.3477 181.713 41.2238C179.957 43.0746 177.753 44 175.101 44C172.425 44 170.195 43.0498 168.412 41.1494V43.6226H164.696V17.3759H168.412ZM178.964 38.7126C180.103 37.5626 180.673 36.0727 180.673 34.2429C180.673 32.4131 180.103 30.9232 178.964 29.7733C177.823 28.6244 176.347 28.0494 174.535 28.0483C172.723 28.0472 171.247 28.6222 170.106 29.7733C168.966 30.9232 168.396 32.4131 168.397 34.2429C168.398 36.0727 168.968 37.5626 170.106 38.7126C171.245 39.8614 172.721 40.4359 174.535 40.4359C176.349 40.4359 177.825 39.8614 178.964 38.7126Z" fill="#F8FAFF"/>
<path d="M192.932 19.9996L189.962 22.9993L186.985 19.9996L189.959 17.0001L192.932 19.9996ZM188.103 24.8749H191.819V43.6226H188.103V24.8749Z" fill="#F8FAFF"/>
<path d="M196.649 17.3759H200.365V43.6226H196.649V17.3759ZM212.998 24.8749L205.566 34.2496L212.998 43.6242H208.725L201.295 34.2496L208.725 24.8749H212.998Z" fill="#F8FAFF"/>
<path d="M137.571 24.8749V43.6226H133.857V41.1841C132.345 43.0603 130.301 43.9984 127.726 43.9984C125.348 43.9984 123.416 43.1976 121.929 41.5963C120.468 40.0214 119.737 38.0095 119.737 35.5606V24.8733H123.453V35.1799C123.453 36.8055 123.923 38.0807 124.865 39.0056C125.78 39.9558 127.043 40.431 128.652 40.431C130.262 40.431 131.526 39.9558 132.445 39.0056C133.385 38.0807 133.856 36.8055 133.857 35.1799V28.0334H131.379V24.8401L135.118 24.8682L137.571 24.8749Z" fill="#F8FAFF"/>
</g>
<defs>
<clipPath id="clip0_52_505">
<rect width="115" height="27" fill="white" transform="translate(98 17)"/>
</clipPath>
</defs>
</svg>
